<svg width="60px" height="31px" viewBox="0 0 60 31" version="1.1" xmlns="http://www.w3.org/2000/svg" xmlns:xlink="http://www.w3.org/1999/xlink">
    <!-- Generator: Sketch 47.1 (45422) - http://www.bohemiancoding.com/sketch -->
    <desc>Created with Sketch.</desc>
    <defs></defs>
    <g id="Page-1" stroke="none" stroke-width="1" fill="none" fill-rule="evenodd">
        <g id="Desktop-HD">
            <g id="Group">
                <path d="M52.6736165,23.8478261 L55,23.8478261 C57.4852814,23.8478261 59.5,21.8331075 59.5,19.3478261 L59.5,15.4347826 C59.5,12.9495012 57.4852814,10.9347826 55,10.9347826 L54.5230637,10.9347826 L54.4597813,10.5081439 C54.2461613,9.06795567 53.7165615,6.82637705 52.8717511,3.79276396 C52.3297446,1.84648392 50.5570522,0.50000101 48.5367111,0.5 L23.6071441,0.5 C21.958044,0.5 20.4410408,1.40203931 19.6534749,2.85092648 C17.8311166,6.20354103 16.5237826,8.79900859 15.7330561,10.6327637 L15.6028237,10.9347826 L5,10.9347826 C2.51471863,10.9347826 0.5,12.9495012 0.5,15.4347826 L0.5,19.3478261 C0.5,21.8331075 2.51471863,23.8478261 5,23.8478261 L7.32638354,23.8478261 C7.36139389,19.9998592 10.491589,16.8913043 14.3478261,16.8913043 C18.2040631,16.8913043 21.3342583,19.9998592 21.3692686,23.8478261 L38.6307314,23.8478261 C38.6657417,19.9998592 41.7959369,16.8913043 45.6521739,16.8913043 C49.508411,16.8913043 52.6386061,19.9998592 52.6736165,23.8478261 Z" id="Combined-Shape" stroke="#007BFF"></path>
                <circle id="Oval-2" stroke="#212529" cx="14.3478261" cy="23.9130435" r="5.65217391"></circle>
                <circle id="Oval-2" stroke="#212529" cx="45.6521739" cy="23.9130435" r="5.65217391"></circle>
            </g>
        </g>
    </g>
</svg>