
<svg width="54px" height="27px" viewBox="0 0 54 27" version="1.1" xmlns="http://www.w3.org/2000/svg" xmlns:xlink="http://www.w3.org/1999/xlink">
    <!-- Generator: Sketch 47.1 (45422) - http://www.bohemiancoding.com/sketch -->
    <desc>Created with Sketch.</desc>
    <defs></defs>
    <g id="Page-1" stroke="none" stroke-width="1" fill="none" fill-rule="evenodd">
        <g id="car" transform="translate(-8.000000, -22.000000)">
            <g id="Group-2">
                <g id="Group" transform="translate(8.000000, 22.000000)">
                    <path d="M46.7815025,21.0985139 L48.2248993,21.0985139 C50.7101807,21.0985139 52.7248993,19.0837953 52.7248993,16.5985139 L52.7248993,14.2565083 C52.7248993,11.9482811 50.97836,10.0204524 48.7008682,9.78134066 L48.3146047,9.74078722 L48.2583486,9.35649664 C48.0819114,8.15123836 47.6506938,6.29836858 46.9653536,3.806621 C46.4281512,1.85347013 44.6521529,0.499999084 42.6264728,0.500004074 L21.2774949,0.500004074 C19.6257351,0.500004074 18.1067311,1.40492869 17.3202878,2.85745108 C15.7895387,5.68468817 14.6850721,7.8851192 14.00835,9.45448943 L13.8781176,9.7565083 L5,9.7565083 C2.51471863,9.7565083 0.5,11.7712269 0.5,14.2565083 L0.5,16.5985139 C0.5,19.0837953 2.51471863,21.0985139 5,21.0985139 L6.44339682,21.0985139 C6.50436716,17.6799736 9.29459421,14.9275111 12.7276933,14.9275111 C16.1607924,14.9275111 18.9510195,17.6799736 19.0119898,21.0985139 L34.2129095,21.0985139 C34.2738798,17.6799736 37.0641069,14.9275111 40.497206,14.9275111 C43.9303051,14.9275111 46.7205321,17.6799736 46.7815025,21.0985139 Z" id="Combined-Shape" stroke="#007BFF"></path>
                    <circle id="Oval-2" stroke="#212529" cx="12.73155" cy="21.3362436" r="5.01393979"></circle>
                    <circle id="Oval-2" stroke="#212529" cx="40.497206" cy="21.3362436" r="5.01393979"></circle>
                </g>
            </g>
        </g>
    </g>
</svg>