
<svg width="46px" height="45px" viewBox="0 0 46 45" version="1.1" xmlns="http://www.w3.org/2000/svg" xmlns:xlink="http://www.w3.org/1999/xlink">
    <!-- Generator: Sketch 47.1 (45422) - http://www.bohemiancoding.com/sketch -->
    <desc>Created with Sketch.</desc>
    <defs>
        <rect id="path-1" x="21.5" y="22" width="27" height="27"></rect>
    </defs>
    <g id="Page-1" stroke="none" stroke-width="1" fill="none" fill-rule="evenodd">
        <g id="Group" transform="translate(3.500000, 22.000000) rotate(90.000000) translate(-3.500000, -22.000000) translate(-9.500000, 19.000000)" stroke="#007BFF" stroke-linecap="square">
            <path d="M13,5.5 L13,0.5" id="Line"></path>
            <path d="M21,5.5 L21,0.5" id="Line"></path>
            <path d="M25,5.5 L25,0.5" id="Line"></path>
            <path d="M17,5.5 L17,0.5" id="Line"></path>
            <path d="M5,5.5 L5,0.5" id="Line"></path>
            <path d="M9,5.5 L9,0.5" id="Line"></path>
            <path d="M1,5.5 L1,0.5" id="Line"></path>
        </g>
        <g id="Group" transform="translate(42.500000, 22.000000) rotate(90.000000) translate(-42.500000, -22.000000) translate(29.500000, 19.000000)" stroke="#007BFF" stroke-linecap="square">
            <path d="M13,5.5 L13,0.5" id="Line"></path>
            <path d="M21,5.5 L21,0.5" id="Line"></path>
            <path d="M25,5.5 L25,0.5" id="Line"></path>
            <path d="M17,5.5 L17,0.5" id="Line"></path>
            <path d="M5,5.5 L5,0.5" id="Line"></path>
            <path d="M9,5.5 L9,0.5" id="Line"></path>
            <path d="M1,5.5 L1,0.5" id="Line"></path>
        </g>
        <g id="Group" transform="translate(10.000000, 39.000000)" stroke="#007BFF" stroke-linecap="square">
            <path d="M13,5.5 L13,0.5" id="Line"></path>
            <path d="M21,5.5 L21,0.5" id="Line"></path>
            <path d="M25,5.5 L25,0.5" id="Line"></path>
            <path d="M17,5.5 L17,0.5" id="Line"></path>
            <path d="M5,5.5 L5,0.5" id="Line"></path>
            <path d="M9,5.5 L9,0.5" id="Line"></path>
            <path d="M1,5.5 L1,0.5" id="Line"></path>
        </g>
        <g id="Group" transform="translate(10.000000, 0.000000)" stroke="#007BFF" stroke-linecap="square">
            <path d="M13,5.5 L13,0.5" id="Line"></path>
            <path d="M21,5.5 L21,0.5" id="Line"></path>
            <path d="M25,5.5 L25,0.5" id="Line"></path>
            <path d="M17,5.5 L17,0.5" id="Line"></path>
            <path d="M5,5.5 L5,0.5" id="Line"></path>
            <path d="M9,5.5 L9,0.5" id="Line"></path>
            <path d="M1,5.5 L1,0.5" id="Line"></path>
        </g>
        <g id="cpu" transform="translate(-12.000000, -13.000000)">
            <rect id="Rectangle-13" stroke="#212529" x="18" y="18.5" width="34" height="34"></rect>
            <g id="Rectangle-13">
                <use fill="#007BFF" fill-rule="evenodd" xlink:href="#path-1"></use>
                <rect stroke="#007BFF" stroke-width="1" x="22" y="22.5" width="26" height="26"></rect>
            </g>
        </g>
    </g>
</svg>