
<svg width="51px" height="33px" viewBox="0 0 51 33" version="1.1" xmlns="http://www.w3.org/2000/svg" xmlns:xlink="http://www.w3.org/1999/xlink">
    <!-- Generator: Sketch 47.1 (45422) - http://www.bohemiancoding.com/sketch -->
    <desc>Created with Sketch.</desc>
    <defs></defs>
    <g id="Page-1" stroke="none" stroke-width="1" fill="none" fill-rule="evenodd">
        <g id="eye" transform="translate(-10.000000, -19.000000)">
            <g id="Group" transform="translate(14.000000, 27.000000)">
                <path d="M42.5,8.5 C35.5,12.1693908 30.9537867,14.400014 28.8613602,15.1918696 C26.7689336,15.9837252 24.3151469,16.4197687 21.5,16.5 L21.5,0.5 C22.7767378,0.497137351 25.2305245,1.18729377 28.8613602,2.57046926 C32.4921958,3.95364474 37.0384091,5.93015499 42.5,8.5 Z M3.06285442e-15,8.5 C5.4615909,5.93015499 10.0078042,3.95364474 13.6386398,2.57046926 C17.2694755,1.18729377 19.7232622,0.497137351 21,0.5 L21,16.5 C18.1848531,16.4197687 15.7310664,15.9837252 13.6386398,15.1918696 C11.5462133,14.400014 7,12.1693908 3.06285442e-15,8.5 Z" id="Combined-Shape" stroke="#212529"></path>
                <circle id="Oval-3" stroke="#007BFF" fill="#FFFFFF" cx="21" cy="8.5" r="7.5"></circle>
                <circle id="Oval-3" stroke="#007BFF" fill="#FFFFFF" cx="21" cy="8.5" r="3"></circle>
            </g>
            <path d="M10.5,19.5 L10.5,47 C10.5,49.4852814 12.5147186,51.5 15,51.5 L56,51.5 C58.4852814,51.5 60.5,49.4852814 60.5,47 L60.5,19.5 L10.5,19.5 Z" id="Rectangle-12" stroke="#007BFF"></path>
        </g>
    </g>
</svg>