
<svg width="52px" height="36px" viewBox="0 0 52 36" version="1.1" xmlns="http://www.w3.org/2000/svg" xmlns:xlink="http://www.w3.org/1999/xlink">
    <!-- Generator: Sketch 47.1 (45422) - http://www.bohemiancoding.com/sketch -->
    <desc>Created with Sketch.</desc>
    <defs></defs>
    <g id="Page-1" stroke="none" stroke-width="1" fill="none" fill-rule="evenodd">
        <g id="giveback" transform="translate(-9.000000, -17.000000)">
            <g id="Group-3" transform="translate(5.000000, 3.000000)">
                <path d="M41.5,40.5416306 L41.5,16.3143578 C41.5,11.4693143 37.5723162,7.54163056 32.7272727,7.54163056 C27.8822292,7.54163056 23.9545455,11.4693143 23.9545455,16.3143578 L23.9545455,22.996176 L17.2727273,22.996176 C12.4276838,22.996176 8.5,26.9238598 8.5,31.7689033 C8.5,36.6139468 12.4276838,40.5416306 17.2727273,40.5416306 L32.7272727,40.5416306 L41.5,40.5416306 Z" id="Combined-Shape" stroke="#007BFF" transform="translate(25.000000, 24.041631) rotate(45.000000) translate(-25.000000, -24.041631) "></path>
                <path d="M51.5,42.5416306 L51.5,18.3143578 C51.5,13.4693143 47.5723162,9.54163056 42.7272727,9.54163056 C37.8822292,9.54163056 33.9545455,13.4693143 33.9545455,18.3143578 L33.9545455,24.996176 L27.2727273,24.996176 C22.4276838,24.996176 18.5,28.9238598 18.5,33.7689033 C18.5,38.6139468 22.4276838,42.5416306 27.2727273,42.5416306 L51.5,42.5416306 Z" id="Combined-Shape" stroke="#212529" transform="translate(35.000000, 26.041631) rotate(45.000000) translate(-35.000000, -26.041631) "></path>
            </g>
        </g>
    </g>
</svg>