
<svg width="49px" height="14px" viewBox="0 0 49 14" version="1.1" xmlns="http://www.w3.org/2000/svg" xmlns:xlink="http://www.w3.org/1999/xlink">
    <!-- Generator: Sketch 47.1 (45422) - http://www.bohemiancoding.com/sketch -->
    <desc>Created with Sketch.</desc>
    <defs></defs>
    <g id="Page-1" stroke="none" stroke-width="1" fill="none" fill-rule="evenodd">
        <g id="openglass" transform="translate(-11.000000, -28.000000)">
            <g id="Group-5" transform="translate(11.000000, 28.000000)">
                <rect id="Rectangle-7" stroke="#212529" x="22.5" y="0.5" width="4" height="3"></rect>
                <rect id="Rectangle-7" stroke="#212529" x="0.5" y="0.5" width="2" height="8"></rect>
                <rect id="Rectangle-7" stroke="#212529" x="46.5" y="0.5" width="2" height="8"></rect>
                <path d="M3.5,0.5 L3.5,9 C3.5,11.4852814 5.51471863,13.5 8,13.5 L17,13.5 C19.4852814,13.5 21.5,11.4852814 21.5,9 L21.5,0.5 L3.5,0.5 Z" id="Rectangle-6" stroke="#007BFF"></path>
                <path d="M27.5,0.5 L27.5,9 C27.5,11.4852814 29.5147186,13.5 32,13.5 L41,13.5 C43.4852814,13.5 45.5,11.4852814 45.5,9 L45.5,0.5 L27.5,0.5 Z" id="Rectangle-6" stroke="#007BFF"></path>
                <rect id="Rectangle-8" stroke="#007BFF" x="32.5" y="3.5" width="8" height="7"></rect>
            </g>
        </g>
    </g>
</svg>